<?xml version="1.0" encoding="UTF-8"?>
<!DOCTYPE svg PUBLIC "-//W3C//DTD SVG 1.1//EN" "http://www.w3.org/Graphics/SVG/1.1/DTD/svg11.dtd">
<!-- Creator: CorelDRAW 2021.5 -->
<svg xmlns="http://www.w3.org/2000/svg" xml:space="preserve" width="210mm" height="170mm" version="1.1" style="shape-rendering:geometricPrecision; text-rendering:geometricPrecision; image-rendering:optimizeQuality; fill-rule:evenodd; clip-rule:evenodd"
viewBox="0 0 21000 17000"
 xmlns:xlink="http://www.w3.org/1999/xlink"
 xmlns:xodm="http://www.corel.com/coreldraw/odm/2003">
 <defs>
  <style type="text/css">
   <![CDATA[
    .str0 {stroke:#2B2A29;stroke-width:20;stroke-miterlimit:22.9256}
    .fil1 {fill:black}
    .fil0 {fill:black}
   ]]>
  </style>
 </defs>
 <g id="Слой_x0020_1">
  <metadata id="CorelCorpID_0Corel-Layer"/>
  <path class="fil0 str0" d="M7479.36 14560.83c-256.94,239.02 -615.45,621.44 -967.99,902.28 -352.55,280.84 -699.12,460.09 -1063.61,573.62 -364.5,113.53 -746.91,161.34 -1147.25,125.48 -400.35,-35.85 -818.63,-155.35 -1451.3,-645.33 -632.67,-489.97 -1479.75,-1350.42 -1903.28,-1936 -423.54,-585.57 -423.54,-896.29 -423.54,-1392.24 0,-495.94 0,-1177.13 226.36,-1798.56 226.35,-621.43 679.05,-1183.11 1126.49,-1493.82 447.44,-310.72 889.61,-370.48 1469.22,-382.43 579.6,-11.95 1296.63,23.91 1918.07,155.37 621.43,131.45 1147.25,358.51 1398.22,376.44 250.96,17.92 227.05,-173.29 221.08,-585.58 -5.98,-412.3 5.97,-1045.68 280.84,-1804.54 274.86,-758.86 812.63,-1643.21 1463.94,-2414.02 651.31,-770.81 1416.15,-1428.1 2336.34,-2045.91 920.2,-617.82 1995.76,-1196.16 3417.88,-1485.33 1422.12,-289.18 3190.8,-289.18 4257.79,-161.34 1066.99,127.84 1432.28,383.52 1614.92,678.67 182.65,295.15 182.65,629.76 182.65,964.38 0,334.62 0,669.23 -110.94,926.17 -110.94,256.94 -332.83,436.2 -784.36,591.56 -451.53,155.36 -1132.72,286.81 -1843.78,358.52 -711.06,71.7 -1451.99,83.65 -2019.65,179.26 -567.65,95.6 -962.02,274.86 -1386.27,627.41 -424.24,352.54 -878.37,878.36 -1350.42,1577.47 -472.04,699.11 -962.02,1571.51 -1230.91,2420 -268.88,848.49 -316.69,1673.08 -310.72,2061.47 5.98,388.4 65.74,340.59 364.5,137.43 298.77,-203.16 836.54,-561.67 1768.69,-752.88 932.15,-191.21 2258.66,-215.12 2993.62,-161.34 734.97,53.78 878.37,185.23 1063.6,489.97 185.24,304.74 412.31,782.77 442.18,1272.74 29.88,489.98 -137.43,991.9 -711.06,1601.38 -573.63,609.49 -1553.57,1326.52 -2431.94,1876.25 -878.37,549.73 -1655.16,932.14 -2443.9,1141.27 -788.74,209.14 -1589.43,245 -2127.2,107.56 -537.78,-137.43 -812.65,-448.14 -1057.63,-914.22 -244.99,-466.07 -460.1,-1087.5 -615.46,-1386.27 -155.36,-298.76 -250.96,-274.86 -340.59,-256.94 -89.63,17.93 -173.29,29.88 -292.79,83.66 -119.51,53.78 -274.86,149.38 -531.8,388.39z"/>
  <rect class="fil1" x="5178.86" y="4844.99" width="11723.53" height="501.93"/>
  <rect class="fil1" x="5178.86" y="5956.4" width="11723.53" height="501.93"/>
 </g>
</svg>
